<svg xmlns="http://www.w3.org/2000/svg" width="24" height="24" viewBox="0 0 16 16"><path fill="currentColor" d="M7 4c0-.14 0-.209.008-.267a.85.85 0 0 1 .725-.725C7.79 3 7.86 3 8 3s.209 0 .267.008a.85.85 0 0 1 .725.725C9 3.79 9 3.86 9 4s0 .209-.008.267a.85.85 0 0 1-.725.725C8.21 5 8.14 5 8 5s-.209 0-.267-.008a.85.85 0 0 1-.725-.725C7 4.21 7 4.14 7 4m0 4c0-.14 0-.209.008-.267a.85.85 0 0 1 .725-.725C7.79 7 7.86 7 8 7s.209 0 .267.008a.85.85 0 0 1 .725.725C9 7.79 9 7.86 9 8s0 .209-.008.267a.85.85 0 0 1-.725.725C8.21 9 8.14 9 8 9s-.209 0-.267-.008a.85.85 0 0 1-.725-.725C7 8.21 7 8.14 7 8m0 4c0-.139 0-.209.008-.267a.85.85 0 0 1 .724-.724c.059-.008.128-.008.267-.008s.21 0 .267.008a.85.85 0 0 1 .724.724c.008.058.008.128.008.267s0 .209-.008.267a.85.85 0 0 1-.724.724c-.058.008-.128.008-.267.008s-.209 0-.267-.008a.85.85 0 0 1-.724-.724C7 12.209 7 12.139 7 12"/></svg>