<svg xmlns="http://www.w3.org/2000/svg" width="24" height="24" viewBox="0 0 26 26"><path fill="currentColor" d="M2 2a2 2 0 0 0-2 2c0 .738 1.156 2.057 1.156 3S0 10.921 0 13s1.156 4.991 1.156 6S0 21.262 0 22a2 2 0 0 0 2 2c.738 0 3.124-1.125 4.5-1.125S8.396 24 9.5 24s2.131-1.125 3.5-1.125S14.896 24 16 24s2.563-1.125 3.5-1.125S23.262 24 24 24a2 2 0 0 0 2-2c0-.738-1.156-2.057-1.156-3S26 14.95 26 13s-1.156-4.991-1.156-6S26 4.738 26 4a2 2 0 0 0-2-2c-.738 0-3.124 1.156-4.5 1.156S17.604 2 16.5 2S14.369 3.156 13 3.156S11.104 2 10 2S7.438 3.156 6.5 3.156S2.738 2 2 2m2 3h18c.551 0 1 .449 1 1v14c0 .551-.449 1-1 1H4c-.551 0-1-.449-1-1V6c0-.551.449-1 1-1m6.031 3.063a.75.75 0 0 0-.562.218L8.28 9.47a.81.81 0 0 0 0 1.156L10.656 13l-2.375 2.375a.81.81 0 0 0 0 1.156L9.47 17.72a.81.81 0 0 0 1.156 0L13 15.344l2.375 2.375a.814.814 0 0 0 1.156 0l1.188-1.188a.814.814 0 0 0 0-1.156L15.344 13l2.375-2.375a.814.814 0 0 0 0-1.156L16.53 8.28a.814.814 0 0 0-1.156 0L13 10.656l-2.375-2.375c-.16-.162-.382-.218-.594-.219z"/></svg>