<svg version="1.1" id="Layer_1" xmlns="http://www.w3.org/2000/svg" xmlns:xlink="http://www.w3.org/1999/xlink" x="0px" y="0px"
	 width="100%" viewBox="0 0 874 874" enable-background="new 0 0 874 874" xml:space="preserve">
<path fill="#000000" opacity="1.000000" stroke="none" 
	d="
M467.000000,875.000000 
	C311.333344,875.000000 156.166672,875.000000 1.000000,875.000000 
	C1.000000,583.666687 1.000000,292.333344 1.000000,1.000000 
	C292.333344,1.000000 583.666687,1.000000 875.000000,1.000000 
	C875.000000,292.333344 875.000000,583.666687 875.000000,875.000000 
	C739.166687,875.000000 603.333313,875.000000 467.000000,875.000000 
M245.988205,686.802551 
	C248.297943,688.231079 250.607666,689.659607 252.988403,691.820374 
	C253.223938,692.207520 253.364594,692.755188 253.708710,692.958618 
	C266.695709,700.635803 279.595215,708.470459 292.750183,715.849609 
	C299.154877,719.442261 306.033600,722.192871 312.712738,725.292358 
	C317.016296,727.289429 321.291138,729.364380 325.677734,731.163208 
	C333.912384,734.540100 342.152222,737.925049 350.514557,740.963623 
	C358.426788,743.838623 366.458344,746.406555 374.512604,748.862854 
	C381.801270,751.085815 389.140503,753.191772 396.553345,754.943176 
	C402.359467,756.315002 408.367645,756.823730 414.186279,758.152710 
	C421.736450,759.877197 429.093658,762.602295 436.705170,763.863281 
	C446.325836,765.457153 456.118530,766.013916 465.838409,767.004456 
	C466.498627,767.071716 467.183533,766.942566 467.834686,767.045471 
	C476.109558,768.352600 484.337952,770.253723 492.662384,770.875183 
	C504.370880,771.749329 516.151123,771.989502 527.898438,771.942566 
	C547.645630,771.863770 567.395081,771.491943 587.135132,770.939697 
	C594.948975,770.721130 602.698547,770.680847 610.613831,769.518982 
	C621.412292,767.933838 632.409058,767.580872 643.204407,765.164551 
	C648.591797,763.958740 654.332153,764.262085 659.919006,764.030334 
	C670.156677,763.605591 673.262085,761.195129 676.339905,751.302612 
	C677.314331,748.170654 678.403320,745.044739 679.779297,742.073181 
	C683.083496,734.938110 686.644287,727.922241 689.996521,720.808777 
	C692.980835,714.475891 695.860535,708.092896 698.719910,701.702271 
	C701.858643,694.687378 704.937195,687.645447 708.012817,680.602539 
	C711.371094,672.912354 714.599182,665.163818 718.061157,657.520996 
	C721.933777,648.971375 726.152466,640.576965 729.950317,631.995483 
	C734.132812,622.544800 738.008545,612.958252 742.017029,603.430603 
	C745.103760,596.094055 748.002563,588.671387 751.320435,581.440979 
	C755.835938,571.600708 761.066589,562.067261 765.120117,552.049988 
	C766.287292,549.165527 765.555054,544.295410 763.736694,541.714417 
	C761.213257,538.132568 756.502441,536.185608 753.330383,532.948486 
	C745.379089,524.833984 737.294006,516.769592 730.167114,507.953888 
	C724.426514,500.852936 719.805603,492.805267 715.065796,484.949646 
	C711.101929,478.380249 707.160583,471.705048 704.153076,464.673065 
	C699.968872,454.889526 696.572632,444.762115 693.016846,434.718964 
	C690.530640,427.696930 687.798767,420.693115 686.153015,413.459045 
	C683.946350,403.759216 682.228149,393.895111 681.135864,384.009186 
	C679.933838,373.129425 679.071655,362.140381 679.154053,351.207153 
	C679.279053,334.599426 680.341125,317.998627 681.028748,301.395844 
	C681.062073,300.591431 681.341614,299.799683 681.472229,298.996460 
	C682.656555,291.710266 683.967468,284.441162 684.965027,277.129333 
	C685.627808,272.271271 685.484375,267.286194 686.370361,262.481232 
	C687.026794,258.921356 689.037415,255.630798 689.939880,252.091537 
	C691.005188,247.913483 691.223328,243.514526 692.350281,239.358170 
	C694.354919,231.964890 696.863403,224.709839 698.984375,217.346054 
	C701.627319,208.169525 703.751282,198.890701 707.841797,190.117111 
	C712.043701,181.104630 715.630859,171.749435 718.661560,162.280029 
	C719.612671,159.308304 719.049927,153.697327 717.130920,152.451965 
	C714.023682,150.435516 711.466492,154.450027 710.006409,157.343903 
	C704.552002,168.154297 699.428040,179.131927 693.937622,189.923462 
	C687.412781,202.748138 680.723633,215.491333 673.946899,228.185074 
	C667.451233,240.352463 660.683044,252.374207 654.160583,264.527527 
	C646.642456,278.535889 639.319580,292.648987 631.807861,306.660797 
	C622.524292,323.977783 613.119873,341.229950 603.794250,358.524445 
	C597.829041,369.587067 591.901062,380.669891 585.979065,391.755768 
	C583.759521,395.910614 582.340820,395.991425 579.598267,392.109161 
	C579.244263,391.608002 578.575317,391.329224 578.015015,390.143036 
	C574.611877,380.916901 571.213684,371.688965 567.804260,362.465179 
	C565.015686,354.920898 561.890198,347.482513 559.498352,339.814941 
	C556.373291,329.796997 553.352051,319.700470 551.157959,309.451141 
	C548.897644,298.892090 547.294128,288.151489 546.123047,277.411804 
	C544.954834,266.698578 544.092163,255.884521 544.156128,245.120972 
	C544.242004,230.657639 545.206177,216.192001 546.073547,201.744156 
	C546.480774,194.961823 545.785461,188.312653 547.609192,181.325394 
	C550.168213,171.520920 549.926941,160.997803 551.059204,150.801590 
	C551.426331,147.495529 552.413208,144.262741 552.995728,140.975021 
	C553.783508,136.529053 554.382141,132.049072 555.200867,127.609291 
	C555.776733,124.486176 556.613220,121.411995 557.280823,118.304680 
	C558.216675,113.948730 559.237427,109.602585 559.905457,105.204208 
	C560.049377,104.256935 559.074829,102.723396 558.179504,102.185699 
	C557.612244,101.845009 555.797546,102.552582 555.300476,103.296608 
	C552.721375,107.156830 550.216553,111.087746 547.999695,115.164726 
	C542.560608,125.167778 537.394836,135.319885 531.920349,145.303055 
	C528.454895,151.622650 524.610352,157.733551 520.974976,163.960968 
	C515.081909,174.055893 509.039337,184.070236 503.433746,194.323044 
	C501.102783,198.586349 499.733185,203.375259 497.182465,207.989426 
	C491.775940,217.071640 486.304932,226.116241 480.981537,235.246918 
	C475.911530,243.942886 470.869965,252.660400 466.065887,261.504272 
	C463.723206,265.816925 461.949768,270.438873 459.165497,274.990417 
	C444.621521,299.895813 430.077515,324.801178 415.288727,350.125763 
	C413.729156,349.037201 411.235443,348.071411 409.921967,346.253052 
	C401.852539,335.081879 393.577789,324.012421 386.293793,312.333801 
	C379.275421,301.081024 373.042603,289.298523 367.076660,277.440826 
	C361.659119,266.673157 356.711487,255.633179 352.217987,244.447617 
	C348.501068,235.195358 345.673950,225.579666 342.614746,216.072815 
	C341.681396,213.172241 341.481262,210.039841 340.602631,207.116623 
	C338.866333,201.339737 336.387299,195.743637 335.118683,189.877441 
	C332.446106,177.519363 330.161621,165.067383 328.104736,152.590149 
	C326.995117,145.859161 326.604919,139.002991 326.050262,132.190247 
	C325.821198,129.376740 326.193909,126.511955 325.929932,123.704620 
	C325.810699,122.436684 325.029510,120.464813 324.148315,120.212906 
	C322.800232,119.827522 320.841248,120.258263 319.625916,121.068794 
	C318.154968,122.049835 316.783264,123.615349 316.094543,125.236359 
	C314.926392,127.985847 314.755493,131.199768 313.394592,133.817780 
	C310.933960,138.551346 307.675537,142.866898 305.160400,147.576080 
	C299.384125,158.391113 293.919739,169.372284 288.202301,180.219360 
	C284.238037,187.740265 280.003784,195.118423 275.995514,202.616638 
	C268.911987,215.867645 262.037231,229.231720 254.836517,242.418182 
	C247.325928,256.172058 239.393021,269.695770 231.916077,283.467407 
	C227.280014,292.006470 223.386856,300.949493 218.733582,309.478424 
	C212.322052,321.230042 205.433884,332.720581 198.895920,344.404663 
	C195.485779,350.498962 192.514359,356.838318 189.119797,362.941864 
	C184.183380,371.817719 178.987900,380.549164 174.007874,389.401245 
	C169.763870,396.945068 165.643539,404.558899 161.513809,412.166351 
	C157.639038,419.304169 153.865982,426.497345 149.971039,433.624023 
	C145.447540,441.900818 140.871841,450.149567 136.259064,458.377014 
	C132.556091,464.981720 128.658707,471.479095 125.035980,478.126770 
	C119.524559,488.240173 114.099968,498.402985 108.807388,508.632172 
	C107.325821,511.495667 105.443085,514.701599 105.550659,517.685364 
	C105.662354,520.783142 107.804657,523.884277 109.337914,526.839172 
	C113.071152,534.033875 116.784042,541.250000 120.843849,548.261475 
	C125.433258,556.187622 130.286392,563.967346 135.213135,571.690674 
	C145.601837,587.976379 156.543335,603.836853 169.928772,617.904053 
	C179.103745,627.546387 187.760025,637.682556 196.943832,647.316040 
	C200.144745,650.673706 204.231476,653.186890 207.988998,656.827148 
	C217.123260,664.809998 226.110779,672.971436 235.477707,680.671204 
	C238.439362,683.105774 242.415268,684.306458 245.988205,686.802551 
z"/>
<path fill="#F4FBFC" opacity="1.000000" stroke="none" 
	d="
M578.052307,390.947449 
	C578.575317,391.329224 579.244263,391.608002 579.598267,392.109161 
	C582.340820,395.991425 583.759521,395.910614 585.979065,391.755768 
	C591.901062,380.669891 597.829041,369.587067 603.794250,358.524445 
	C613.119873,341.229950 622.524292,323.977783 631.807861,306.660797 
	C639.319580,292.648987 646.642456,278.535889 654.160583,264.527527 
	C660.683044,252.374207 667.451233,240.352463 673.946899,228.185074 
	C680.723633,215.491333 687.412781,202.748138 693.937622,189.923462 
	C699.428040,179.131927 704.552002,168.154297 710.006409,157.343903 
	C711.466492,154.450027 714.023682,150.435516 717.130920,152.451965 
	C719.049927,153.697327 719.612671,159.308304 718.661560,162.280029 
	C715.630859,171.749435 712.043701,181.104630 707.841797,190.117111 
	C703.751282,198.890701 701.627319,208.169525 698.984375,217.346054 
	C696.863403,224.709839 694.354919,231.964890 692.350281,239.358170 
	C691.223328,243.514526 691.005188,247.913483 689.939880,252.091537 
	C689.037415,255.630798 687.026794,258.921356 686.370361,262.481232 
	C685.484375,267.286194 685.627808,272.271271 684.965027,277.129333 
	C683.967468,284.441162 682.656555,291.710266 681.472229,298.996460 
	C681.341614,299.799683 681.062073,300.591431 681.028748,301.395844 
	C680.341125,317.998627 679.279053,334.599426 679.154053,351.207153 
	C679.071655,362.140381 679.933838,373.129425 681.135864,384.009186 
	C682.228149,393.895111 683.946350,403.759216 686.153015,413.459045 
	C687.798767,420.693115 690.530640,427.696930 693.016846,434.718964 
	C696.572632,444.762115 699.968872,454.889526 704.153076,464.673065 
	C707.160583,471.705048 711.101929,478.380249 715.065796,484.949646 
	C719.805603,492.805267 724.426514,500.852936 730.167114,507.953888 
	C737.294006,516.769592 745.379089,524.833984 753.330383,532.948486 
	C756.502441,536.185608 761.213257,538.132568 763.736694,541.714417 
	C765.555054,544.295410 766.287292,549.165527 765.120117,552.049988 
	C761.066589,562.067261 755.835938,571.600708 751.320435,581.440979 
	C748.002563,588.671387 745.103760,596.094055 742.017029,603.430603 
	C738.008545,612.958252 734.132812,622.544800 729.950317,631.995483 
	C726.152466,640.576965 721.933777,648.971375 718.061157,657.520996 
	C714.599182,665.163818 711.371094,672.912354 708.012817,680.602539 
	C704.937195,687.645447 701.858643,694.687378 698.719910,701.702271 
	C695.860535,708.092896 692.980835,714.475891 689.996521,720.808777 
	C686.644287,727.922241 683.083496,734.938110 679.779297,742.073181 
	C678.403320,745.044739 677.314331,748.170654 676.339905,751.302612 
	C673.262085,761.195129 670.156677,763.605591 659.919006,764.030334 
	C654.332153,764.262085 648.591797,763.958740 643.204407,765.164551 
	C632.409058,767.580872 621.412292,767.933838 610.613831,769.518982 
	C602.698547,770.680847 594.948975,770.721130 587.135132,770.939697 
	C567.395081,771.491943 547.645630,771.863770 527.898438,771.942566 
	C516.151123,771.989502 504.370880,771.749329 492.662384,770.875183 
	C484.337952,770.253723 476.109558,768.352600 467.834686,767.045471 
	C467.183533,766.942566 466.498627,767.071716 465.838409,767.004456 
	C456.118530,766.013916 446.325836,765.457153 436.705170,763.863281 
	C429.093658,762.602295 421.736450,759.877197 414.186279,758.152710 
	C408.367645,756.823730 402.359467,756.315002 396.553345,754.943176 
	C389.140503,753.191772 381.801270,751.085815 374.512604,748.862854 
	C366.458344,746.406555 358.426788,743.838623 350.514557,740.963623 
	C342.152222,737.925049 333.912384,734.540100 325.677734,731.163208 
	C321.291138,729.364380 317.016296,727.289429 312.712738,725.292358 
	C306.033600,722.192871 299.154877,719.442261 292.750183,715.849609 
	C279.595215,708.470459 266.695709,700.635803 253.708710,692.958618 
	C253.364594,692.755188 253.223938,692.207520 253.134674,691.243652 
	C253.401764,690.526306 253.522568,690.385559 253.933929,690.390137 
	C256.149933,691.671936 258.075409,692.808533 260.226135,694.203918 
	C266.950867,698.315063 273.450256,702.167419 280.157043,706.298096 
	C293.408386,713.107788 306.206360,720.196838 319.537476,726.077271 
	C390.238953,757.264038 464.791260,769.556091 541.570679,770.401855 
	C573.229492,770.750549 604.790527,768.918701 636.188904,764.816589 
	C645.368286,763.617371 654.449829,761.669922 663.966125,760.149780 
	C668.199341,760.746704 670.115845,759.110779 671.740234,755.434143 
	C691.983704,709.613586 712.453552,663.893005 732.850342,618.140137 
	C743.618225,593.986389 754.357178,569.819702 764.882202,546.168701 
	C762.302002,544.463928 759.809753,543.158203 757.716492,541.382202 
	C733.796875,521.088013 716.230835,495.990814 703.176086,467.715942 
	C678.600342,414.488281 673.379028,358.410614 679.534790,300.791901 
	C684.388123,255.364548 696.169128,211.623840 711.933960,168.867264 
	C712.440857,167.492233 712.736511,166.039307 713.130615,164.622681 
	C711.440613,165.545914 710.648926,166.772537 709.952820,168.051224 
	C674.323486,233.499207 638.722229,298.962524 603.062256,364.393890 
	C596.304749,376.793060 589.317566,389.067139 582.269409,401.034729 
	C580.750244,397.436127 579.398010,394.201752 578.033325,390.963593 
	C578.020813,390.959808 578.052307,390.947449 578.052307,390.947449 
z"/>
<path fill="#F4FBFC" opacity="1.000000" stroke="none" 
	d="
M207.913635,656.085754 
	C204.231476,653.186890 200.144745,650.673706 196.943832,647.316040 
	C187.760025,637.682556 179.103745,627.546387 169.928772,617.904053 
	C156.543335,603.836853 145.601837,587.976379 135.213135,571.690674 
	C130.286392,563.967346 125.433258,556.187622 120.843849,548.261475 
	C116.784042,541.250000 113.071152,534.033875 109.337914,526.839172 
	C107.804657,523.884277 105.662354,520.783142 105.550659,517.685364 
	C105.443085,514.701599 107.325821,511.495667 108.807388,508.632172 
	C114.099968,498.402985 119.524559,488.240173 125.035980,478.126770 
	C128.658707,471.479095 132.556091,464.981720 136.259064,458.377014 
	C140.871841,450.149567 145.447540,441.900818 149.971039,433.624023 
	C153.865982,426.497345 157.639038,419.304169 161.513809,412.166351 
	C165.643539,404.558899 169.763870,396.945068 174.007874,389.401245 
	C178.987900,380.549164 184.183380,371.817719 189.119797,362.941864 
	C192.514359,356.838318 195.485779,350.498962 198.895920,344.404663 
	C205.433884,332.720581 212.322052,321.230042 218.733582,309.478424 
	C223.386856,300.949493 227.280014,292.006470 231.916077,283.467407 
	C239.393021,269.695770 247.325928,256.172058 254.836517,242.418182 
	C262.037231,229.231720 268.911987,215.867645 275.995514,202.616638 
	C280.003784,195.118423 284.238037,187.740265 288.202301,180.219360 
	C293.919739,169.372284 299.384125,158.391113 305.160400,147.576080 
	C307.675537,142.866898 310.933960,138.551346 313.394592,133.817780 
	C314.755493,131.199768 314.926392,127.985847 316.094543,125.236359 
	C316.783264,123.615349 318.154968,122.049835 319.625916,121.068794 
	C320.841248,120.258263 322.800232,119.827522 324.148315,120.212906 
	C325.029510,120.464813 325.810699,122.436684 325.929932,123.704620 
	C326.193909,126.511955 325.821198,129.376740 326.050262,132.190247 
	C326.604919,139.002991 326.995117,145.859161 328.104736,152.590149 
	C330.161621,165.067383 332.446106,177.519363 335.118683,189.877441 
	C336.387299,195.743637 338.866333,201.339737 340.602631,207.116623 
	C341.481262,210.039841 341.681396,213.172241 342.614746,216.072815 
	C345.673950,225.579666 348.501068,235.195358 352.217987,244.447617 
	C356.711487,255.633179 361.659119,266.673157 367.076660,277.440826 
	C373.042603,289.298523 379.275421,301.081024 386.293793,312.333801 
	C393.577789,324.012421 401.852539,335.081879 409.921967,346.253052 
	C411.235443,348.071411 413.729156,349.037201 415.288727,350.125763 
	C430.077515,324.801178 444.621521,299.895813 459.554749,274.966278 
	C459.944000,274.942139 459.962341,274.969666 460.283264,275.245148 
	C459.846558,276.996613 459.139343,278.501099 458.323761,279.944336 
	C445.400818,302.811066 432.521790,325.703064 419.459045,348.489746 
	C417.779724,351.419159 417.784302,353.364990 420.039978,355.922516 
	C430.712036,368.023071 441.217773,380.270325 451.232422,392.613647 
	C437.689240,379.234009 424.696411,365.705963 411.530151,351.997314 
	C411.124481,352.459167 410.282715,353.417603 409.764954,353.964386 
	C409.779633,347.211151 404.840881,343.919189 401.043457,339.507446 
	C397.526123,334.054108 394.033752,328.952240 390.400269,323.521332 
	C385.093719,314.797516 379.928314,306.402740 374.697968,297.678070 
	C369.523987,287.392731 364.414917,277.437286 359.226013,267.147278 
	C354.734100,255.876450 350.322021,244.940201 345.904968,233.634674 
	C332.971161,197.727615 326.803375,160.748795 323.062988,121.829590 
	C321.567413,124.335602 320.866211,125.424400 320.248383,126.558586 
	C308.088684,148.882172 295.963165,171.224411 283.781067,193.535751 
	C264.600494,228.664749 245.383163,263.773712 226.079224,299.185272 
	C215.284607,319.250244 204.592163,339.021088 193.604248,358.989563 
	C192.557327,360.654358 191.833237,362.136292 191.050278,363.586426 
	C181.630447,381.032532 172.201920,398.473938 162.495117,416.113708 
	C153.502411,432.541779 144.790237,448.772736 135.837311,465.255859 
	C129.577835,476.621796 123.559143,487.735565 117.298401,499.078918 
	C115.093712,502.707855 113.314491,506.230835 111.126198,509.478180 
	C107.690025,514.577209 107.644478,519.366333 111.762329,524.452515 
	C115.442818,531.589478 119.023064,538.374573 122.719437,545.497986 
	C128.147705,554.591736 133.459854,563.347229 138.875427,572.436768 
	C143.451492,579.233765 147.924149,585.696716 152.549408,592.481812 
	C160.610275,602.606934 168.518524,612.409912 176.609390,622.511353 
	C182.325333,628.601746 187.858673,634.393616 193.575790,640.485840 
	C198.729492,645.630920 203.699417,650.475647 208.480591,655.511963 
	C208.165756,655.830933 208.039688,655.958374 207.913635,656.085754 
z"/>
<path fill="#F4FBFC" opacity="1.000000" stroke="none" 
	d="
M497.926392,207.925171 
	C499.733185,203.375259 501.102783,198.586349 503.433746,194.323044 
	C509.039337,184.070236 515.081909,174.055893 520.974976,163.960968 
	C524.610352,157.733551 528.454895,151.622650 531.920349,145.303055 
	C537.394836,135.319885 542.560608,125.167778 547.999695,115.164726 
	C550.216553,111.087746 552.721375,107.156830 555.300476,103.296608 
	C555.797546,102.552582 557.612244,101.845009 558.179504,102.185699 
	C559.074829,102.723396 560.049377,104.256935 559.905457,105.204208 
	C559.237427,109.602585 558.216675,113.948730 557.280823,118.304680 
	C556.613220,121.411995 555.776733,124.486176 555.200867,127.609291 
	C554.382141,132.049072 553.783508,136.529053 552.995728,140.975021 
	C552.413208,144.262741 551.426331,147.495529 551.059204,150.801590 
	C549.926941,160.997803 550.168213,171.520920 547.609192,181.325394 
	C545.785461,188.312653 546.480774,194.961823 546.073547,201.744156 
	C545.206177,216.192001 544.242004,230.657639 544.156128,245.120972 
	C544.092163,255.884521 544.954834,266.698578 546.123047,277.411804 
	C547.294128,288.151489 548.897644,298.892090 551.157959,309.451141 
	C553.352051,319.700470 556.373291,329.796997 559.498352,339.814941 
	C561.890198,347.482513 565.015686,354.920898 567.804260,362.465179 
	C571.213684,371.688965 574.611877,380.916901 578.033691,390.545227 
	C578.052307,390.947449 578.020813,390.959808 577.670837,391.010803 
	C575.507324,387.332794 573.580261,383.654297 571.897034,379.867371 
	C542.752075,314.298248 537.362488,245.582169 545.654419,175.290604 
	C548.257629,153.223068 552.903259,131.396469 556.753052,109.178253 
	C556.892029,108.317284 556.892029,107.737671 556.892029,105.929611 
	C556.162598,107.628464 555.926392,108.178566 555.427429,108.949661 
	C537.077698,141.069458 519.000549,172.973831 500.865906,204.845520 
	C500.181641,206.048050 498.940796,206.933899 497.954224,207.954315 
	C497.949127,207.941315 497.926392,207.925156 497.926392,207.925171 
z"/>
<path fill="#F4FBFC" opacity="1.000000" stroke="none" 
	d="
M459.931335,274.931458 
	C461.949768,270.438873 463.723206,265.816925 466.065887,261.504272 
	C470.869965,252.660400 475.911530,243.942886 480.981537,235.246918 
	C486.304932,226.116241 491.775940,217.071640 497.554443,207.957291 
	C497.926392,207.925156 497.949127,207.941315 498.246155,208.249649 
	C486.256653,230.415894 473.975891,252.277039 461.643982,274.109314 
	C461.385590,274.566772 460.536102,274.690338 459.962341,274.969666 
	C459.962341,274.969666 459.944000,274.942139 459.931335,274.931458 
z"/>
<path fill="#F4FBFC" opacity="1.000000" stroke="none" 
	d="
M245.927002,686.071838 
	C242.415268,684.306458 238.439362,683.105774 235.477707,680.671204 
	C226.110779,672.971436 217.123260,664.809998 207.951309,656.456421 
	C208.039688,655.958374 208.165756,655.830933 208.726456,655.725525 
	C211.775009,657.827332 214.388931,659.907166 217.142593,662.292480 
	C223.858185,667.721252 230.434021,672.844360 237.183929,678.256958 
	C240.228745,681.042725 243.099503,683.539124 245.957733,686.042603 
	C245.945190,686.049622 245.927002,686.071838 245.927002,686.071838 
z"/>
<path fill="#F4FBFC" opacity="1.000000" stroke="none" 
	d="
M253.099182,690.877563 
	C250.607666,689.659607 248.297943,688.231079 245.957611,686.437195 
	C245.927002,686.071838 245.945190,686.049622 246.223694,685.731445 
	C248.882584,687.023743 251.262970,688.634338 253.643356,690.244873 
	C253.522568,690.385559 253.401764,690.526306 253.099182,690.877563 
z"/>
<path fill="#00E4FF" opacity="1.000000" stroke="none" 
	d="
M409.440979,354.376068 
	C410.282715,353.417603 411.124481,352.459167 411.530151,351.997314 
	C424.696411,365.705963 437.689240,379.234009 451.239899,392.620178 
	C452.517151,393.138275 453.236542,393.798218 453.611450,394.806152 
	C454.192566,395.781708 455.118164,396.409302 456.017578,397.023621 
	C455.991364,397.010315 455.963745,396.958435 455.844574,397.336121 
	C456.164093,397.821350 456.602753,397.928894 457.015869,398.023071 
	C456.990265,398.009766 456.963623,397.958557 456.844543,398.336243 
	C457.164093,398.821472 457.602722,398.928955 458.015930,399.023010 
	C457.990448,399.009583 457.963684,398.958618 457.843994,399.328857 
	C458.163849,399.811768 458.603333,399.924438 459.015442,400.024536 
	C458.988007,400.011993 458.962830,399.957214 458.870789,400.311279 
	C459.201477,400.788788 459.624146,400.912231 460.013000,401.029755 
	C459.979126,401.023834 459.966827,400.956207 459.859100,401.291565 
	C460.503448,402.036652 461.255524,402.446411 462.305969,403.016541 
	C471.059448,410.603912 479.299591,418.294037 488.009766,425.408691 
	C514.272583,446.860718 543.027771,464.484131 573.141235,479.950409 
	C623.508118,505.818909 676.301270,525.148499 731.304993,538.491577 
	C735.523438,539.514832 739.790039,540.339294 744.034302,541.256165 
	C742.706116,539.493225 741.104858,538.725647 739.465332,538.051331 
	C674.238586,511.223267 621.261841,469.520905 583.230835,409.594421 
	C581.447571,406.784454 580.743530,404.325195 582.436340,401.398895 
	C589.317566,389.067139 596.304749,376.793060 603.062256,364.393890 
	C638.722229,298.962524 674.323486,233.499207 709.952820,168.051224 
	C710.648926,166.772537 711.440613,165.545914 713.130615,164.622681 
	C712.736511,166.039307 712.440857,167.492233 711.933960,168.867264 
	C696.169128,211.623840 684.388123,255.364548 679.534790,300.791901 
	C673.379028,358.410614 678.600342,414.488281 703.176086,467.715942 
	C716.230835,495.990814 733.796875,521.088013 757.716492,541.382202 
	C759.809753,543.158203 762.302002,544.463928 764.882202,546.168701 
	C754.357178,569.819702 743.618225,593.986389 732.850342,618.140137 
	C712.453552,663.893005 691.983704,709.613586 671.740234,755.434143 
	C670.115845,759.110779 668.199341,760.746704 663.489746,760.156311 
	C654.375488,759.395325 646.117615,758.813110 637.881775,758.005676 
	C625.079773,756.750488 612.228210,755.779724 599.513123,753.905273 
	C574.971497,750.287170 550.820984,744.805115 527.200989,737.110657 
	C495.245850,726.700989 465.006836,712.757019 437.636932,693.089905 
	C429.414124,687.181335 421.771179,680.465759 413.850403,673.840820 
	C413.536743,673.366333 413.235291,673.170959 412.976837,672.978149 
	C413.019867,672.980774 413.022430,673.066956 412.946106,672.797180 
	C412.557678,672.344788 412.245636,672.162231 411.976257,671.979736 
	C412.018890,671.979858 412.026520,672.064819 411.928833,671.811279 
	C411.531616,671.366028 411.232056,671.174316 410.975281,670.980347 
	C411.018066,670.978088 411.030518,671.062866 410.851746,670.779968 
	C409.101318,669.318298 407.529633,668.139465 405.994202,666.959290 
	C406.030426,666.957947 406.047729,667.028320 406.020630,666.728149 
	C405.646912,666.272034 405.300232,666.116089 404.993408,665.963257 
	C405.033203,665.966431 405.040375,666.045959 405.008911,665.746826 
	C404.636292,665.285095 404.295074,665.122375 403.993683,664.963013 
	C404.033478,664.966370 404.040375,665.045959 404.008911,664.746826 
	C403.636292,664.285095 403.295074,664.122375 402.993683,663.963013 
	C403.033478,663.966370 403.040375,664.045959 403.008911,663.746826 
	C402.636292,663.285034 402.295105,663.122375 401.993683,662.963257 
	C402.033478,662.966797 402.039734,663.046448 402.011932,662.738098 
	C401.644653,662.271057 401.305145,662.112427 401.003235,661.962402 
	C401.040771,661.971069 401.037476,662.048096 401.044739,661.706665 
	C399.679321,659.899780 398.306610,658.434387 396.977692,656.975708 
	C397.021484,656.982422 397.015991,657.070801 396.941895,656.800293 
	C396.556274,656.345581 396.244690,656.161438 395.975952,655.979370 
	C396.018738,655.981384 396.022186,656.067017 395.946472,655.796204 
	C395.557922,655.341736 395.245148,655.158142 394.975433,654.978455 
	C395.018524,654.982422 395.017883,655.068970 394.969666,654.774353 
	C394.585815,654.323792 394.250183,654.167847 393.951904,653.979126 
	C393.989288,653.946350 394.065430,654.010254 393.875336,653.996216 
	C393.578613,653.664185 393.472015,653.346130 393.117371,652.720947 
	C390.585449,649.930908 388.301575,647.447998 385.886719,644.653381 
	C381.832092,639.210876 377.908478,634.080017 373.923218,628.598755 
	C371.374451,624.320801 368.887299,620.393250 366.296570,616.360962 
	C365.778320,615.324158 365.363678,614.392090 364.990356,613.468994 
	C365.031738,613.478088 365.024353,613.562439 365.033661,613.163330 
	C362.014313,607.161377 358.985657,601.558533 355.996796,595.968140 
	C356.036621,595.980652 356.022797,596.062988 356.071472,595.712646 
	C355.730225,594.558350 355.340302,593.754395 354.992004,592.965393 
	C355.033630,592.980408 355.014130,593.066772 355.002136,592.684204 
	C349.756012,575.945679 343.670471,559.800415 339.552155,543.168091 
	C336.145294,529.409241 335.061279,515.075195 332.960449,500.622559 
	C332.932068,499.503815 332.891296,498.758545 332.894897,497.675995 
	C332.896332,496.888397 332.853455,496.438049 332.841614,495.734467 
	C332.858490,495.311707 332.844330,495.142212 332.893616,494.736206 
	C332.957001,494.499725 333.045013,494.018005 333.254517,493.920929 
	C333.738800,493.624329 333.862671,493.355316 334.011169,492.708679 
	C341.398865,479.255310 348.611023,466.110077 355.881470,452.732941 
	C355.939758,452.501068 356.019653,452.029633 356.234314,451.930756 
	C356.736786,451.637360 356.871674,451.366669 357.024841,450.703430 
	C357.968353,448.745880 358.655701,447.058136 359.526154,445.470825 
	C368.024292,429.974670 376.552979,414.495270 385.345886,398.810364 
	C387.118164,395.861237 388.631622,393.120422 390.114380,390.363129 
	C395.374664,380.581146 400.624451,370.793488 406.044250,360.703247 
	C407.287170,358.391052 408.364075,356.383575 409.440979,354.376068 
z"/>
<path fill="#2D7796" opacity="1.000000" stroke="none" 
	d="
M582.269409,401.034729 
	C580.743530,404.325195 581.447571,406.784454 583.230835,409.594421 
	C621.261841,469.520905 674.238586,511.223267 739.465332,538.051331 
	C741.104858,538.725647 742.706116,539.493225 744.034302,541.256165 
	C739.790039,540.339294 735.523438,539.514832 731.304993,538.491577 
	C676.301270,525.148499 623.508118,505.818909 573.141235,479.950409 
	C543.027771,464.484131 514.272583,446.860718 488.009766,425.408691 
	C479.299591,418.294037 471.059448,410.603912 462.242279,402.716248 
	C461.242371,401.822449 460.604614,401.389343 459.966827,400.956207 
	C459.966827,400.956207 459.979126,401.023834 459.971069,400.738373 
	C459.629608,400.287689 459.296204,400.122437 458.962830,399.957214 
	C458.962830,399.957214 458.988007,400.011993 458.975464,399.733032 
	C458.629822,399.288910 458.296753,399.123779 457.963684,398.958618 
	C457.963684,398.958618 457.990448,399.009583 457.976440,398.731567 
	C457.629486,398.288574 457.296539,398.123566 456.963623,397.958557 
	C456.963623,397.958557 456.990265,398.009766 456.976379,397.731628 
	C456.629578,397.288483 456.296661,397.123444 455.963745,396.958435 
	C455.963745,396.958435 455.991364,397.010315 455.948853,396.688782 
	C455.256226,395.730865 454.606079,395.094513 453.955963,394.458160 
	C453.236542,393.798218 452.517151,393.138275 451.790253,392.471802 
	C441.217773,380.270325 430.712036,368.023071 420.039978,355.922516 
	C417.784302,353.364990 417.779724,351.419159 419.459045,348.489746 
	C432.521790,325.703064 445.400818,302.811066 458.323761,279.944336 
	C459.139343,278.501099 459.846558,276.996613 460.283264,275.245148 
	C460.536102,274.690338 461.385590,274.566772 461.643982,274.109314 
	C473.975891,252.277039 486.256653,230.415894 498.251221,208.262650 
	C498.940796,206.933899 500.181641,206.048050 500.865906,204.845520 
	C519.000549,172.973831 537.077698,141.069458 555.651978,109.140518 
	C556.297485,109.226799 556.455811,109.343193 556.614075,109.459595 
	C552.903259,131.396469 548.257629,153.223068 545.654419,175.290604 
	C537.362488,245.582169 542.752075,314.298248 571.897034,379.867371 
	C573.580261,383.654297 575.507324,387.332794 577.683350,391.014587 
	C579.398010,394.201752 580.750244,397.436127 582.269409,401.034729 
z"/>
<path fill="#186079" opacity="1.000000" stroke="none" 
	d="
M386.017700,644.965088 
	C388.301575,647.447998 390.585449,649.930908 393.144775,652.862183 
	C393.548309,653.612732 393.763367,653.845947 394.065430,654.010254 
	C394.065430,654.010254 393.989288,653.946350 394.003906,654.276306 
	C394.351654,654.760498 394.684784,654.914734 395.017883,655.068970 
	C395.017883,655.068970 395.018524,654.982422 394.991119,655.288574 
	C395.316559,655.752075 395.669373,655.909546 396.022186,656.067017 
	C396.022186,656.067017 396.018738,655.981384 395.989166,656.298462 
	C396.311737,656.767334 396.663849,656.919067 397.015991,657.070801 
	C397.015991,657.070801 397.021484,656.982422 396.948914,657.317993 
	C398.263367,659.118408 399.650421,660.583252 401.037476,662.048096 
	C401.037476,662.048096 401.040771,661.971069 401.078186,662.230347 
	C401.423615,662.675232 401.731689,662.860840 402.039734,663.046448 
	C402.039734,663.046448 402.033478,662.966797 402.071899,663.231079 
	C402.420349,663.678894 402.730377,663.862427 403.040375,664.045959 
	C403.040375,664.045959 403.033478,663.966370 403.071899,664.230835 
	C403.420349,664.678894 403.730377,664.862427 404.040375,665.045959 
	C404.040375,665.045959 404.033478,664.966370 404.071899,665.230835 
	C404.420319,665.678894 404.730347,665.862427 405.040375,666.045959 
	C405.040375,666.045959 405.033203,665.966431 405.073425,666.228210 
	C405.425018,666.669434 405.736359,666.848877 406.047729,667.028320 
	C406.047729,667.028320 406.030426,666.957947 406.181213,667.237122 
	C407.898193,668.698486 409.464355,669.880676 411.030518,671.062866 
	C411.030518,671.062866 411.018066,670.978088 410.966431,671.296631 
	C411.285400,671.765015 411.655975,671.914917 412.026520,672.064819 
	C412.026520,672.064819 412.018890,671.979858 411.992249,672.289124 
	C412.317871,672.754578 412.670135,672.910767 413.022430,673.066956 
	C413.022430,673.066956 413.019867,672.980774 412.972168,673.260132 
	C413.237152,673.732971 413.549866,673.926453 413.862610,674.119934 
	C421.771179,680.465759 429.414124,687.181335 437.636932,693.089905 
	C465.006836,712.757019 495.245850,726.700989 527.200989,737.110657 
	C550.820984,744.805115 574.971497,750.287170 599.513123,753.905273 
	C612.228210,755.779724 625.079773,756.750488 637.881775,758.005676 
	C646.117615,758.813110 654.375488,759.395325 663.099854,760.071960 
	C654.449829,761.669922 645.368286,763.617371 636.188904,764.816589 
	C604.790527,768.918701 573.229492,770.750549 541.570679,770.401855 
	C464.791260,769.556091 390.238953,757.264038 319.537476,726.077271 
	C306.206360,720.196838 293.408386,713.107788 280.477356,706.160583 
	C289.711212,700.639771 298.849518,695.565735 307.949310,690.423523 
	C327.587433,679.326294 347.249969,668.270996 366.807526,657.033203 
	C373.359192,653.268555 379.622528,649.002136 386.017700,644.965088 
z"/>
<path fill="#147089" opacity="1.000000" stroke="none" 
	d="
M365.024353,613.562439 
	C365.024353,613.562439 365.031738,613.478088 364.991730,613.786316 
	C365.434540,614.884949 365.917328,615.675293 366.400116,616.465698 
	C368.887299,620.393250 371.374451,624.320801 373.538391,628.619751 
	C371.699127,629.531128 370.070435,629.869263 368.684387,630.642395 
	C355.065765,638.237732 341.500885,645.929321 327.894653,653.547119 
	C307.773468,664.812500 287.589111,675.966248 267.545135,687.367126 
	C264.702789,688.983826 262.499756,691.724609 260.000854,693.945068 
	C258.075409,692.808533 256.149933,691.671936 253.933929,690.390137 
	C251.262970,688.634338 248.882584,687.023743 246.236237,685.724365 
	C243.099503,683.539124 240.228745,681.042725 237.224396,677.908020 
	C237.699875,676.531067 238.162308,675.533936 238.940079,675.092712 
	C250.034225,668.799072 261.183624,662.603027 272.294312,656.338440 
	C286.864838,648.122925 301.389832,639.826355 315.977203,631.640991 
	C330.855743,623.292419 345.786194,615.036316 360.878540,607.024048 
	C362.383545,609.393127 363.703949,611.477783 365.024353,613.562439 
z"/>
<path fill="#166881" opacity="1.000000" stroke="none" 
	d="
M260.226135,694.203857 
	C262.499756,691.724609 264.702789,688.983826 267.545135,687.367126 
	C287.589111,675.966248 307.773468,664.812500 327.894653,653.547119 
	C341.500885,645.929321 355.065765,638.237732 368.684387,630.642395 
	C370.070435,629.869263 371.699127,629.531128 373.600037,628.970215 
	C377.908478,634.080017 381.832092,639.210876 385.886719,644.653320 
	C379.622528,649.002136 373.359192,653.268555 366.807526,657.033203 
	C347.249969,668.270996 327.587433,679.326294 307.949310,690.423523 
	C298.849518,695.565735 289.711212,700.639771 280.270020,705.882263 
	C273.450256,702.167419 266.950867,698.315063 260.226135,694.203857 
z"/>
<path fill="#0CA2BC" opacity="1.000000" stroke="none" 
	d="
M385.072968,399.011108 
	C376.552979,414.495270 368.024292,429.974670 359.526154,445.470825 
	C358.655701,447.058136 357.968353,448.745880 356.646057,450.697968 
	C354.222656,451.597931 352.185577,451.890778 350.501038,452.821594 
	C332.627106,462.698059 314.791321,472.644012 296.981354,482.635529 
	C281.635803,491.244476 266.336304,499.935547 251.018021,508.593048 
	C228.474747,521.333923 205.929657,534.071533 183.391571,546.821472 
	C168.512741,555.238586 153.644821,563.674927 138.772003,572.102661 
	C133.459854,563.347229 128.147705,554.591736 123.072807,545.355530 
	C134.909515,538.397888 146.513382,531.928894 158.107498,525.442505 
	C180.569366,512.875977 203.060425,500.361084 225.474945,487.710632 
	C249.764175,474.002136 273.965057,460.137268 298.231995,446.389160 
	C321.345001,433.294708 344.449158,420.183228 367.658386,407.260925 
	C373.258362,404.143005 379.257416,401.741852 385.072968,399.011108 
z"/>
<path fill="#08B7D1" opacity="1.000000" stroke="none" 
	d="
M374.762878,298.007965 
	C379.928314,306.402740 385.093719,314.797516 390.004639,323.578308 
	C381.005219,328.733826 372.197876,333.392761 363.527496,338.293915 
	C339.376282,351.945862 315.315826,365.758453 291.155243,379.393646 
	C268.725494,392.051971 246.178177,404.501923 223.745529,417.155151 
	C196.542191,432.499268 169.419830,447.986969 142.204849,463.310272 
	C140.412857,464.319214 138.131699,464.459381 136.078064,465.003693 
	C144.790237,448.772736 153.502411,432.541779 162.887085,416.132385 
	C165.414505,415.284515 167.401871,414.853394 169.103500,413.907959 
	C183.040298,406.164856 196.934860,398.345398 210.821106,390.511658 
	C233.526932,377.702484 256.220856,364.872162 278.912079,352.037201 
	C295.532593,342.636047 312.125458,333.185944 328.758911,323.807800 
	C344.073944,315.173035 359.426727,306.605255 374.762878,298.007965 
z"/>
<path fill="#0AA9C3" opacity="1.000000" stroke="none" 
	d="
M385.345886,398.810364 
	C379.257416,401.741852 373.258362,404.143005 367.658386,407.260925 
	C344.449158,420.183228 321.345001,433.294708 298.231995,446.389160 
	C273.965057,460.137268 249.764175,474.002136 225.474945,487.710632 
	C203.060425,500.361084 180.569366,512.875977 158.107498,525.442505 
	C146.513382,531.928894 134.909515,538.397888 122.956688,545.017212 
	C119.023064,538.374573 115.442818,531.589478 112.144928,524.400146 
	C122.492287,518.544373 132.637711,513.235535 142.607178,507.614563 
	C172.246033,490.903748 201.789352,474.023560 231.420975,457.299866 
	C253.684677,444.734528 276.067322,432.379883 298.324799,419.803619 
	C330.260010,401.759064 362.098785,383.543579 394.069092,365.561768 
	C397.708069,363.515045 401.927795,362.500916 405.878235,361.007965 
	C400.624451,370.793488 395.374664,380.581146 390.114380,390.363129 
	C388.631622,393.120422 387.118164,395.861237 385.345886,398.810364 
z"/>
<path fill="#07BDD7" opacity="1.000000" stroke="none" 
	d="
M374.697968,297.678070 
	C359.426727,306.605255 344.073944,315.173035 328.758911,323.807800 
	C312.125458,333.185944 295.532593,342.636047 278.912079,352.037201 
	C256.220856,364.872162 233.526932,377.702484 210.821106,390.511658 
	C196.934860,398.345398 183.040298,406.164856 169.103500,413.907959 
	C167.401871,414.853394 165.414505,415.284515 163.167618,415.935272 
	C172.201920,398.473938 181.630447,381.032532 191.050278,363.586426 
	C191.833237,362.136292 192.557327,360.654358 193.803955,359.266449 
	C196.608032,358.689911 199.146652,358.448090 201.189987,357.313904 
	C220.030380,346.856232 238.798767,336.268402 257.561279,325.670990 
	C279.929108,313.037262 302.297302,300.403809 324.612335,287.677368 
	C336.235596,281.048523 347.745026,274.220123 359.305847,267.481842 
	C364.414917,277.437286 369.523987,287.392731 374.697968,297.678070 
z"/>
<path fill="#05C9E3" opacity="1.000000" stroke="none" 
	d="
M226.181396,298.891144 
	C245.383163,263.773712 264.600494,228.664749 283.781067,193.535751 
	C295.963165,171.224411 308.088684,148.882172 320.248383,126.558586 
	C320.866211,125.424400 321.567413,124.335602 323.062988,121.829590 
	C326.803375,160.748795 332.971161,197.727615 345.553467,233.675690 
	C334.920166,239.828949 324.613495,245.536438 314.350677,251.321701 
	C288.603851,265.835449 262.910889,280.445404 237.100250,294.844543 
	C233.750641,296.713226 229.834915,297.567169 226.181396,298.891144 
z"/>
<path fill="#0E91AB" opacity="1.000000" stroke="none" 
	d="
M333.835632,493.016785 
	C333.862671,493.355316 333.738800,493.624329 333.086060,493.983673 
	C332.630310,494.231201 332.469421,494.353668 332.489105,494.400604 
	C332.573975,494.603394 332.711700,494.784027 332.830200,494.972717 
	C332.844330,495.142212 332.858490,495.311707 332.568298,495.785339 
	C332.459503,496.730713 332.654999,497.371979 332.850525,498.013245 
	C332.891296,498.758545 332.932068,499.503815 332.638794,500.870300 
	C333.495697,511.995331 334.686615,522.499207 335.527771,533.046753 
	C333.531525,533.875488 331.832184,534.566772 330.246460,535.459778 
	C309.873810,546.932861 289.515472,558.431274 269.157532,569.930420 
	C254.863998,578.004150 240.584671,586.102966 226.284409,594.164673 
	C209.673538,603.528870 193.046692,612.864746 176.426788,622.212891 
	C168.518524,612.409912 160.610275,602.606934 152.964569,592.442688 
	C154.034348,591.911438 154.947571,591.929932 155.633408,591.544189 
	C178.617432,578.616882 201.596527,565.680664 224.541260,552.683899 
	C256.428558,534.621704 288.250641,516.443909 320.203491,498.498718 
	C324.438110,496.120483 329.276733,494.817657 333.835632,493.016785 
z"/>
<path fill="#0AADC8" opacity="1.000000" stroke="none" 
	d="
M406.044250,360.703247 
	C401.927795,362.500916 397.708069,363.515045 394.069092,365.561768 
	C362.098785,383.543579 330.260010,401.759064 298.324799,419.803619 
	C276.067322,432.379883 253.684677,444.734528 231.420975,457.299866 
	C201.789352,474.023560 172.246033,490.903748 142.607178,507.614563 
	C132.637711,513.235535 122.492287,518.544373 112.044678,524.048340 
	C107.644478,519.366333 107.690025,514.577209 111.126198,509.478180 
	C113.314491,506.230835 115.093712,502.707855 117.705887,499.115204 
	C124.230606,495.950836 130.205032,493.159180 135.962296,489.974823 
	C152.957718,480.574677 169.892639,471.064148 186.804001,461.513184 
	C208.769531,449.107819 230.667053,436.582062 252.636536,424.183746 
	C269.550690,414.638367 286.556488,405.255371 303.475067,395.717743 
	C325.884308,383.084717 348.274048,370.416565 370.619995,357.672058 
	C380.833679,351.846954 390.922791,345.803467 401.068390,339.858978 
	C404.840881,343.919189 409.779633,347.211151 409.764954,353.964386 
	C408.364075,356.383575 407.287170,358.391052 406.044250,360.703247 
z"/>
<path fill="#09B1CC" opacity="1.000000" stroke="none" 
	d="
M401.043457,339.507446 
	C390.922791,345.803467 380.833679,351.846954 370.619995,357.672058 
	C348.274048,370.416565 325.884308,383.084717 303.475067,395.717743 
	C286.556488,405.255371 269.550690,414.638367 252.636536,424.183746 
	C230.667053,436.582062 208.769531,449.107819 186.804001,461.513184 
	C169.892639,471.064148 152.957718,480.574677 135.962296,489.974823 
	C130.205032,493.159180 124.230606,495.950836 117.947922,498.885651 
	C123.559143,487.735565 129.577835,476.621796 135.837311,465.255859 
	C138.131699,464.459381 140.412857,464.319214 142.204849,463.310272 
	C169.419830,447.986969 196.542191,432.499268 223.745529,417.155151 
	C246.178177,404.501923 268.725494,392.051971 291.155243,379.393646 
	C315.315826,365.758453 339.376282,351.945862 363.527496,338.293915 
	C372.197876,333.392761 381.005219,328.733826 390.145752,323.907349 
	C394.033752,328.952240 397.526123,334.054108 401.043457,339.507446 
z"/>
<path fill="#06C3DD" opacity="1.000000" stroke="none" 
	d="
M226.079224,299.185272 
	C229.834915,297.567169 233.750641,296.713226 237.100250,294.844543 
	C262.910889,280.445404 288.603851,265.835449 314.350677,251.321701 
	C324.613495,245.536438 334.920166,239.828949 345.558411,234.044998 
	C350.322021,244.940201 354.734100,255.876450 359.226013,267.147278 
	C347.745026,274.220123 336.235596,281.048523 324.612335,287.677368 
	C302.297302,300.403809 279.929108,313.037262 257.561279,325.670990 
	C238.798767,336.268402 220.030380,346.856232 201.189987,357.313904 
	C199.146652,358.448090 196.608032,358.689911 194.099426,359.068787 
	C204.592163,339.021088 215.284607,319.250244 226.079224,299.185272 
z"/>
<path fill="#0D9AB4" opacity="1.000000" stroke="none" 
	d="
M334.011169,492.708679 
	C329.276733,494.817657 324.438110,496.120483 320.203491,498.498718 
	C288.250641,516.443909 256.428558,534.621704 224.541260,552.683899 
	C201.596527,565.680664 178.617432,578.616882 155.633408,591.544189 
	C154.947571,591.929932 154.034348,591.911438 152.811966,592.120483 
	C147.924149,585.696716 143.451492,579.233765 138.875427,572.436768 
	C153.644821,563.674927 168.512741,555.238586 183.391571,546.821472 
	C205.929657,534.071533 228.474747,521.333923 251.018021,508.593048 
	C266.336304,499.935547 281.635803,491.244476 296.981354,482.635529 
	C314.791321,472.644012 332.627106,462.698059 350.501038,452.821594 
	C352.185577,451.890778 354.222656,451.597931 356.474854,451.014343 
	C356.871674,451.366669 356.736786,451.637360 356.069672,451.992462 
	C355.615662,452.240387 355.460205,452.362946 355.480225,452.408966 
	C355.566437,452.606506 355.704224,452.781555 355.823181,452.964813 
	C348.611023,466.110077 341.398865,479.255310 334.011169,492.708679 
z"/>
<path fill="#11809A" opacity="1.000000" stroke="none" 
	d="
M217.002838,661.986938 
	C214.388931,659.907166 211.775009,657.827332 208.915222,655.533997 
	C203.699417,650.475647 198.729492,645.630920 193.972992,640.423340 
	C197.116302,638.511597 200.084518,637.030640 202.969971,635.402954 
	C225.541214,622.670349 248.100937,609.917236 270.655457,597.154968 
	C287.425537,587.665771 304.148102,578.092041 320.962097,568.681458 
	C327.752716,564.880859 334.730499,561.414551 341.765076,558.131592 
	C344.697968,567.279419 347.488831,576.091675 349.939545,585.040039 
	C342.314392,589.162720 334.985443,593.071350 327.751953,597.149292 
	C294.349579,615.980347 260.941772,634.802490 227.631775,653.795898 
	C223.783218,655.990356 220.531342,659.231201 217.002838,661.986938 
z"/>
<path fill="#1088A1" opacity="1.000000" stroke="none" 
	d="
M341.623108,557.796143 
	C334.730499,561.414551 327.752716,564.880859 320.962097,568.681458 
	C304.148102,578.092041 287.425537,587.665771 270.655457,597.154968 
	C248.100937,609.917236 225.541214,622.670349 202.969971,635.402954 
	C200.084518,637.030640 197.116302,638.511597 193.789215,640.122986 
	C187.858673,634.393616 182.325333,628.601746 176.609375,622.511353 
	C193.046692,612.864746 209.673538,603.528870 226.284409,594.164673 
	C240.584671,586.102966 254.863998,578.004150 269.157532,569.930420 
	C289.515472,558.431274 309.873810,546.932861 330.246460,535.459778 
	C331.832184,534.566772 333.531525,533.875488 335.661621,533.429932 
	C337.971191,541.778381 339.797180,549.787231 341.623108,557.796143 
z"/>
<path fill="#2D7796" opacity="1.000000" stroke="none" 
	d="
M555.914673,108.919540 
	C555.926392,108.178566 556.162598,107.628464 556.892029,105.929611 
	C556.892029,107.737671 556.892029,108.317284 556.753052,109.178253 
	C556.455811,109.343193 556.297485,109.226799 555.914673,108.919540 
z"/>
<path fill="#137992" opacity="1.000000" stroke="none" 
	d="
M217.142578,662.292480 
	C220.531342,659.231201 223.783218,655.990356 227.631775,653.795898 
	C260.941772,634.802490 294.349579,615.980347 327.751953,597.149292 
	C334.985443,593.071350 342.314392,589.162720 350.221863,585.239624 
	C352.234253,587.891052 353.624176,590.478882 355.014130,593.066772 
	C355.014130,593.066772 355.033630,592.980408 354.890686,593.309265 
	C355.172791,594.446411 355.597778,595.254700 356.022797,596.062988 
	C356.022797,596.062988 356.036621,595.980652 356.006897,596.343628 
	C357.549438,600.051025 359.121674,603.395325 360.693909,606.739685 
	C345.786194,615.036316 330.855743,623.292419 315.977203,631.640991 
	C301.389832,639.826355 286.864838,648.122925 272.294312,656.338440 
	C261.183624,662.603027 250.034225,668.799072 238.940079,675.092712 
	C238.162308,675.533936 237.699875,676.531067 237.050323,677.618591 
	C230.434021,672.844360 223.858185,667.721252 217.142578,662.292480 
z"/>
<path fill="#F4FBFC" opacity="1.000000" stroke="none" 
	d="
M355.002136,592.684204 
	C353.624176,590.478882 352.234253,587.891052 350.562012,585.103516 
	C347.488831,576.091675 344.697968,567.279419 341.765106,558.131653 
	C339.797180,549.787231 337.971191,541.778381 336.011383,533.386230 
	C334.686615,522.499207 333.495697,511.995331 332.626434,501.243774 
	C335.061279,515.075195 336.145294,529.409241 339.552155,543.168091 
	C343.670471,559.800415 349.756012,575.945679 355.002136,592.684204 
z"/>
<path fill="#F4FBFC" opacity="1.000000" stroke="none" 
	d="
M360.878540,607.024048 
	C359.121674,603.395325 357.549438,600.051025 355.967072,596.331177 
	C358.985657,601.558533 362.014313,607.161377 365.033661,613.163330 
	C363.703949,611.477783 362.383545,609.393127 360.878540,607.024048 
z"/>
<path fill="#F4FBFC" opacity="1.000000" stroke="none" 
	d="
M410.851746,670.779968 
	C409.464355,669.880676 407.898193,668.698486 406.144989,667.238464 
	C407.529633,668.139465 409.101318,669.318298 410.851746,670.779968 
z"/>
<path fill="#F4FBFC" opacity="1.000000" stroke="none" 
	d="
M401.044739,661.706665 
	C399.650421,660.583252 398.263367,659.118408 396.905090,657.311279 
	C398.306610,658.434387 399.679321,659.899780 401.044739,661.706665 
z"/>
<path fill="#F4FBFC" opacity="1.000000" stroke="none" 
	d="
M366.296570,616.360962 
	C365.917328,615.675293 365.434540,614.884949 364.950378,613.777222 
	C365.363678,614.392090 365.778320,615.324158 366.296570,616.360962 
z"/>
<path fill="#0D9AB4" opacity="1.000000" stroke="none" 
	d="
M332.894897,497.675995 
	C332.654999,497.371979 332.459503,496.730713 332.537292,496.038574 
	C332.853455,496.438049 332.896332,496.888397 332.894897,497.675995 
z"/>
<path fill="#F4FBFC" opacity="1.000000" stroke="none" 
	d="
M459.859100,401.291565 
	C460.604614,401.389343 461.242371,401.822449 461.943848,402.555878 
	C461.255524,402.446411 460.503448,402.036652 459.859100,401.291565 
z"/>
<path fill="#F4FBFC" opacity="1.000000" stroke="none" 
	d="
M356.071472,595.712646 
	C355.597778,595.254700 355.172791,594.446411 354.849091,593.294250 
	C355.340302,593.754395 355.730225,594.558350 356.071472,595.712646 
z"/>
<path fill="#F4FBFC" opacity="1.000000" stroke="none" 
	d="
M453.611450,394.806152 
	C454.606079,395.094513 455.256226,395.730865 455.975067,396.702057 
	C455.118164,396.409302 454.192566,395.781708 453.611450,394.806152 
z"/>
<path fill="#F4FBFC" opacity="1.000000" stroke="none" 
	d="
M393.875336,653.996216 
	C393.763367,653.845947 393.548309,653.612732 393.392822,653.169312 
	C393.472015,653.346130 393.578613,653.664185 393.875336,653.996216 
z"/>
<path fill="#F4FBFC" opacity="1.000000" stroke="none" 
	d="
M403.008911,663.746826 
	C402.730377,663.862427 402.420349,663.678894 402.032104,663.227539 
	C402.295105,663.122375 402.636292,663.285034 403.008911,663.746826 
z"/>
<path fill="#0D9AB4" opacity="1.000000" stroke="none" 
	d="
M332.893616,494.736206 
	C332.711700,494.784027 332.573975,494.603394 332.489105,494.400604 
	C332.469421,494.353668 332.630310,494.231201 332.876587,494.080750 
	C333.045013,494.018005 332.957001,494.499725 332.893616,494.736206 
z"/>
<path fill="#F4FBFC" opacity="1.000000" stroke="none" 
	d="
M413.850403,673.840820 
	C413.549866,673.926453 413.237152,673.732971 412.929138,673.257446 
	C413.235291,673.170959 413.536743,673.366333 413.850403,673.840820 
z"/>
<path fill="#F4FBFC" opacity="1.000000" stroke="none" 
	d="
M412.946106,672.797180 
	C412.670135,672.910767 412.317871,672.754578 411.949585,672.289001 
	C412.245636,672.162231 412.557678,672.344788 412.946106,672.797180 
z"/>
<path fill="#F4FBFC" opacity="1.000000" stroke="none" 
	d="
M411.928833,671.811279 
	C411.655975,671.914917 411.285400,671.765015 410.923645,671.298828 
	C411.232056,671.174316 411.531616,671.366028 411.928833,671.811279 
z"/>
<path fill="#0CA2BC" opacity="1.000000" stroke="none" 
	d="
M355.881470,452.732941 
	C355.704224,452.781555 355.566437,452.606506 355.480225,452.408966 
	C355.460205,452.362946 355.615662,452.240387 355.855011,452.091339 
	C356.019653,452.029633 355.939758,452.501068 355.881470,452.732941 
z"/>
<path fill="#F4FBFC" opacity="1.000000" stroke="none" 
	d="
M406.020630,666.728149 
	C405.736359,666.848877 405.425018,666.669434 405.033630,666.225098 
	C405.300232,666.116089 405.646912,666.272034 406.020630,666.728149 
z"/>
<path fill="#F4FBFC" opacity="1.000000" stroke="none" 
	d="
M405.008911,665.746826 
	C404.730347,665.862427 404.420319,665.678894 404.032104,665.227539 
	C404.295074,665.122375 404.636292,665.285095 405.008911,665.746826 
z"/>
<path fill="#F4FBFC" opacity="1.000000" stroke="none" 
	d="
M404.008911,664.746826 
	C403.730377,664.862427 403.420349,664.678894 403.032104,664.227539 
	C403.295074,664.122375 403.636292,664.285095 404.008911,664.746826 
z"/>
<path fill="#F4FBFC" opacity="1.000000" stroke="none" 
	d="
M455.844574,397.336121 
	C456.296661,397.123444 456.629578,397.288483 457.001953,397.744965 
	C456.602753,397.928894 456.164093,397.821350 455.844574,397.336121 
z"/>
<path fill="#F4FBFC" opacity="1.000000" stroke="none" 
	d="
M402.011932,662.738098 
	C401.731689,662.860840 401.423615,662.675232 401.040619,662.221680 
	C401.305145,662.112427 401.644653,662.271057 402.011932,662.738098 
z"/>
<path fill="#F4FBFC" opacity="1.000000" stroke="none" 
	d="
M458.870789,400.311279 
	C459.296204,400.122437 459.629608,400.287689 460.004913,400.744293 
	C459.624146,400.912231 459.201477,400.788788 458.870789,400.311279 
z"/>
<path fill="#F4FBFC" opacity="1.000000" stroke="none" 
	d="
M396.941895,656.800293 
	C396.663849,656.919067 396.311737,656.767334 395.946350,656.296448 
	C396.244690,656.161438 396.556274,656.345581 396.941895,656.800293 
z"/>
<path fill="#F4FBFC" opacity="1.000000" stroke="none" 
	d="
M457.843994,399.328857 
	C458.296753,399.123779 458.629822,399.288910 459.002869,399.745544 
	C458.603333,399.924438 458.163849,399.811768 457.843994,399.328857 
z"/>
<path fill="#F4FBFC" opacity="1.000000" stroke="none" 
	d="
M395.946472,655.796204 
	C395.669373,655.909546 395.316559,655.752075 394.948029,655.284546 
	C395.245148,655.158142 395.557922,655.341736 395.946472,655.796204 
z"/>
<path fill="#F4FBFC" opacity="1.000000" stroke="none" 
	d="
M394.969666,654.774353 
	C394.684784,654.914734 394.351654,654.760498 393.966553,654.309082 
	C394.250183,654.167847 394.585815,654.323792 394.969666,654.774353 
z"/>
<path fill="#F4FBFC" opacity="1.000000" stroke="none" 
	d="
M456.844543,398.336243 
	C457.296539,398.123566 457.629486,398.288574 458.001892,398.744995 
	C457.602722,398.928955 457.164093,398.821472 456.844543,398.336243 
z"/>
</svg>